<?xml version="1.0" standalone="no"?>
<!DOCTYPE svg PUBLIC "-//W3C//DTD SVG 20010904//EN"
 "http://www.w3.org/TR/2001/REC-SVG-20010904/DTD/svg10.dtd">
<svg version="1.0" xmlns="http://www.w3.org/2000/svg"
 width="500.000000pt" height="500.000000pt" viewBox="0 0 500.000000 500.000000"
 preserveAspectRatio="xMidYMid meet">
<metadata>
Created by potrace 1.14, written by Peter Selinger 2001-2017
</metadata>
<g transform="translate(0.000000,500.000000) scale(0.100000,-0.100000)"
fill="#000000" stroke="none">
<path d="M4689 4214 c-15 -18 -3 -65 24 -94 36 -41 59 -49 117 -41 6 0 10 34
10 77 l0 75 -70 -2 c-43 -1 -74 -7 -81 -15z"/>
<path d="M4545 4175 c-44 -19 -111 -56 -150 -82 -88 -60 -226 -198 -285 -285
-43 -64 -47 -67 -85 -68 -116 -4 -206 -46 -264 -127 -35 -48 -69 -138 -75
-198 l-4 -46 35 40 c21 25 61 53 106 75 105 50 121 52 144 17 l18 -29 52 48
c64 60 149 103 195 98 32 -3 33 -4 30 -43 -5 -53 -45 -136 -93 -192 -37 -42
-39 -46 -22 -59 10 -7 24 -14 31 -14 9 0 11 -10 6 -37 -15 -85 -60 -172 -114
-221 l-25 -23 45 7 c186 28 296 148 304 331 l2 64 55 43 c171 135 313 333 363
508 21 75 21 78 -14 78 -69 0 -130 59 -130 125 0 35 -27 33 -125 -10z m32
-146 c47 -15 73 -53 73 -107 0 -38 -5 -49 -36 -78 -26 -25 -44 -34 -70 -34
-90 0 -147 84 -110 162 27 57 80 78 143 57z"/>
<path d="M4475 3985 c-17 -16 -25 -35 -25 -60 0 -79 92 -116 149 -60 35 34 33
90 -3 122 -37 31 -89 31 -121 -2z"/>
<path d="M4164 3550 c-84 -42 -176 -142 -238 -258 l-28 -53 39 20 c100 51 202
148 248 235 36 69 31 82 -21 56z"/>
<path d="M2835 3513 c-11 -2 -42 -8 -70 -13 -27 -6 -61 -12 -74 -15 -109 -21
-326 -131 -421 -214 -73 -64 -155 -152 -192 -206 l-42 -60 -80 39 c-294 143
-645 117 -916 -67 -25 -17 -85 -72 -135 -122 -152 -153 -225 -305 -260 -540
-10 -67 -7 -158 6 -165 11 -8 110 -25 199 -36 25 -3 59 -7 75 -9 131 -19 533
-26 690 -12 330 29 634 102 945 227 121 48 371 171 450 221 14 9 63 40 110 69
77 48 248 166 260 180 3 3 39 32 80 65 92 73 133 109 300 264 l35 33 -55 51
c-116 109 -165 143 -305 211 -146 72 -299 105 -475 103 -58 0 -114 -2 -125 -4z"/>
<path d="M3749 3064 c-177 -189 -459 -455 -614 -578 -33 -27 -71 -57 -84 -68
-56 -48 -255 -185 -371 -257 -289 -180 -559 -299 -870 -386 -3 -1 -23 -7 -45
-13 -22 -6 -56 -14 -75 -17 -19 -3 -42 -8 -50 -10 -24 -7 -208 -34 -285 -41
-102 -10 -370 -11 -445 -2 -60 8 -228 31 -240 33 -3 1 -27 4 -55 9 -63 9 -291
68 -369 95 -33 12 -65 21 -73 21 -18 0 -88 -147 -109 -229 -12 -48 -15 -93
-11 -180 2 -64 7 -127 10 -140 54 -215 190 -376 402 -475 132 -62 45 -59 1970
-59 1751 1 1761 1 1859 22 312 66 544 292 636 619 24 85 26 272 5 375 -31 149
-115 308 -218 410 -60 59 -168 135 -232 162 -22 10 -47 21 -55 25 -28 13 -125
38 -172 44 -27 3 -67 8 -90 11 -24 3 -56 7 -73 9 -25 3 -30 8 -32 32 -4 59
-13 140 -18 169 -20 109 -93 275 -178 404 l-54 83 -64 -68z"/>
</g>
</svg>
