<?xml version="1.0" standalone="no"?>
<!DOCTYPE svg PUBLIC "-//W3C//DTD SVG 20010904//EN"
 "http://www.w3.org/TR/2001/REC-SVG-20010904/DTD/svg10.dtd">
<svg version="1.0" xmlns="http://www.w3.org/2000/svg"
 width="1000.000000pt" height="1000.000000pt" viewBox="0 0 1000.000000 1000.000000"
 preserveAspectRatio="xMidYMid meet">
<metadata>
Created by potrace 1.14, written by Peter Selinger 2001-2017
</metadata>
<g transform="translate(0.000000,1000.000000) scale(0.100000,-0.100000)"
fill="#000000" stroke="none">
<path d="M9457 7654 c-1 -1 -33 -4 -72 -7 -109 -9 -360 -51 -455 -77 -77 -21
-210 -61 -210 -63 0 -23 49 -165 76 -220 115 -237 370 -427 607 -453 l53 -6
27 139 c41 207 57 356 60 531 l2 157 -43 0 c-24 1 -44 0 -45 -1z"/>
<path d="M8540 7442 c-331 -135 -571 -308 -789 -567 -124 -146 -464 -633 -565
-807 -37 -64 -44 -68 -91 -58 -22 5 -60 11 -85 15 -25 3 -69 10 -98 16 l-52
11 -424 -298 c-518 -362 -482 -335 -467 -362 11 -20 16 -21 174 -17 89 2 271
7 404 10 l241 6 -46 -106 -47 -107 76 -71 c87 -82 314 -295 407 -383 35 -32
68 -60 73 -62 5 -2 52 19 105 47 54 28 99 49 101 48 3 -3 5 -45 19 -377 3 -80
7 -167 9 -195 2 -27 4 -90 5 -138 3 -89 15 -122 43 -111 7 2 48 64 93 137 150
245 350 571 419 684 l68 113 -27 122 c-14 68 -29 132 -32 143 -4 16 5 28 43
55 129 91 535 402 579 445 6 5 37 33 70 60 271 230 401 391 538 670 52 105
109 252 136 348 21 74 22 71 -40 81 -184 28 -334 106 -470 245 -109 111 -177
237 -220 409 -6 23 -16 42 -23 41 -7 0 -64 -21 -127 -47z"/>
<path d="M6520 4914 c-107 -32 -165 -78 -256 -200 -29 -40 -72 -88 -96 -109
l-43 -37 38 4 c20 2 37 1 37 -2 0 -16 -56 -84 -90 -109 l-39 -28 38 -22 c43
-23 74 -28 109 -17 12 4 22 4 22 1 0 -13 -24 -52 -66 -105 -52 -66 -85 -143
-129 -300 -17 -64 -40 -133 -50 -155 -10 -22 -20 -44 -23 -50 -2 -5 9 6 24 25
56 68 119 122 202 171 45 27 85 49 87 49 2 0 33 13 68 29 35 16 87 36 116 45
l53 16 -14 -23 c-27 -40 -40 -97 -33 -135 l7 -37 20 39 c11 22 30 48 42 58 22
18 36 28 218 142 58 36 122 84 142 106 143 158 137 410 -13 549 -41 37 -102
75 -146 91 -54 19 -170 21 -225 4z"/>
<path d="M6014 4512 c-23 -20 -83 -76 -135 -123 -372 -343 -831 -666 -1249
-879 -47 -24 -92 -47 -100 -51 -22 -13 -190 -89 -196 -89 -2 0 -27 -11 -56
-25 -28 -14 -56 -25 -61 -25 -5 0 -23 -7 -40 -15 -104 -48 -407 -142 -614
-189 -118 -27 -137 -31 -233 -46 -36 -6 -75 -13 -88 -15 -13 -2 -53 -7 -90
-11 -37 -3 -76 -8 -87 -10 -43 -8 -237 -18 -365 -18 -128 0 -389 12 -400 19
-3 1 -29 5 -58 9 -87 10 -148 20 -226 35 -28 6 -62 12 -76 15 -107 18 -374 96
-540 159 -475 180 -962 511 -1284 872 -26 29 -26 29 3 -20 68 -113 193 -266
331 -405 350 -353 772 -626 1265 -818 135 -52 402 -134 485 -148 14 -3 39 -9
55 -14 17 -5 84 -18 150 -30 66 -11 131 -22 145 -24 23 -4 75 -11 170 -21 233
-26 675 -26 892 1 179 21 503 75 593 99 11 2 49 12 85 20 207 51 528 158 757
254 470 196 887 432 1361 768 58 42 70 63 37 63 -23 0 -44 54 -48 128 -1 18
-11 15 -103 -30 -107 -54 -191 -121 -244 -197 -42 -59 -54 -69 -98 -77 -28 -5
-72 38 -72 71 0 13 13 51 30 86 16 35 45 119 64 185 40 140 75 231 106 274 25
36 23 41 -29 64 -43 20 -72 65 -64 97 5 19 42 54 65 61 5 2 9 11 7 21 -3 13
-12 9 -45 -21z"/>
<path d="M6730 4054 c-41 -25 -90 -55 -108 -66 -28 -18 -70 -74 -60 -83 2 -2
227 171 247 190 12 13 -10 1 -79 -41z"/>
</g>
</svg>
