<?xml version="1.0" standalone="no"?>
<!DOCTYPE svg PUBLIC "-//W3C//DTD SVG 20010904//EN"
 "http://www.w3.org/TR/2001/REC-SVG-20010904/DTD/svg10.dtd">
<svg version="1.0" xmlns="http://www.w3.org/2000/svg"
 width="500.000000pt" height="500.000000pt" viewBox="0 0 500.000000 500.000000"
 preserveAspectRatio="xMidYMid meet">
<metadata>
Created by potrace 1.14, written by Peter Selinger 2001-2017
</metadata>
<g transform="translate(0.000000,500.000000) scale(0.100000,-0.100000)"
fill="#000000" stroke="none">
<path d="M2345 4799 c-194 -18 -455 -80 -632 -150 -108 -43 -312 -148 -408
-211 -90 -59 -253 -190 -335 -270 -113 -111 -184 -193 -266 -308 -243 -340
-374 -695 -419 -1135 -7 -68 -7 -309 0 -370 2 -22 7 -65 10 -95 15 -140 91
-443 140 -555 60 -137 86 -191 128 -265 l49 -85 -30 -85 c-16 -47 -44 -122
-60 -167 -17 -46 -29 -83 -27 -83 1 0 38 44 81 98 43 53 81 99 84 102 20 17
240 293 240 300 0 5 -16 37 -36 71 -161 275 -247 599 -248 939 0 138 7 236 24
325 5 28 12 66 15 85 4 19 18 76 32 125 112 394 345 740 672 999 266 210 582
342 941 393 112 15 453 9 556 -11 12 -3 38 -7 59 -10 144 -23 316 -82 487
-167 l117 -58 198 65 c108 35 198 66 200 68 4 4 -151 108 -237 158 -244 142
-591 261 -827 283 -27 3 -64 8 -83 11 -52 9 -334 11 -425 3z"/>
<path d="M4495 4289 c-22 -4 -60 -11 -85 -14 -25 -4 -72 -13 -105 -20 -33 -8
-71 -16 -85 -18 -14 -3 -43 -10 -65 -15 -22 -6 -51 -13 -65 -15 -91 -16 -431
-126 -593 -192 -233 -94 -406 -184 -587 -306 l-86 -57 -69 14 c-39 7 -122 23
-185 34 -63 12 -124 24 -136 26 -17 5 -53 -33 -210 -223 -104 -125 -193 -233
-199 -239 -5 -6 -80 -95 -165 -198 -85 -104 -228 -276 -317 -383 -90 -107
-163 -197 -163 -199 0 -6 38 0 220 37 181 37 210 42 210 34 0 -3 -63 -85 -141
-182 -160 -200 -156 -188 -94 -295 88 -150 280 -366 399 -449 73 -52 90 -57
115 -36 9 8 81 51 161 97 80 46 157 92 172 102 14 10 30 18 35 18 6 0 -19 -82
-55 -182 -81 -232 -84 -240 -69 -232 7 4 100 61 207 128 216 134 205 127 287
175 32 19 69 43 83 52 14 10 198 125 410 256 373 231 385 239 384 268 -18 359
-19 395 -6 404 10 7 147 165 188 217 222 281 466 761 625 1232 27 79 49 150
49 158 0 15 -6 16 -65 3z"/>
<path d="M4424 3462 l-90 -187 33 -98 c105 -306 131 -582 88 -927 -4 -30 -20
-107 -36 -170 -87 -342 -251 -637 -492 -883 -305 -312 -676 -500 -1117 -568
-131 -20 -555 -16 -591 7 -4 2 -24 6 -45 10 -248 38 -605 202 -823 376 l-43
35 -122 -73 c-66 -41 -128 -78 -136 -83 -8 -6 -78 -48 -155 -95 -77 -47 -135
-86 -130 -86 6 0 85 16 175 35 l165 34 35 -28 c293 -234 645 -389 1030 -456
267 -46 589 -38 855 21 39 8 79 17 91 19 116 25 398 138 538 218 337 191 636
483 837 817 107 178 229 474 255 619 3 12 11 51 19 85 8 33 17 86 21 116 3 30
10 78 15 105 8 52 5 462 -4 505 -3 14 -8 48 -12 75 -11 91 -53 259 -95 385
-40 118 -156 380 -169 380 -3 0 -47 -85 -97 -188z"/>
<path d="M1435 2078 c-22 -29 -42 -55 -46 -58 -3 -3 -59 -72 -125 -155 -65
-82 -121 -152 -124 -155 -17 -16 -90 -109 -90 -114 0 -4 73 49 162 116 89 68
169 127 178 132 17 11 26 22 -96 -124 -43 -52 -86 -104 -96 -115 -196 -237
-384 -462 -393 -471 -5 -6 -28 -32 -50 -59 -22 -27 -98 -115 -168 -197 -70
-81 -125 -148 -122 -148 3 0 18 9 33 19 62 44 336 219 496 316 18 11 104 65
192 119 87 55 185 115 217 135 32 20 73 45 90 56 61 40 222 137 217 131 -3 -2
-77 -78 -165 -167 -119 -120 -150 -155 -119 -138 193 110 572 345 562 348 -41
13 -164 124 -279 252 -81 88 -205 266 -215 306 -4 12 -9 23 -13 23 -4 0 -25
-24 -46 -52z"/>
</g>
</svg>
